<svg xmlns="http://www.w3.org/2000/svg" width="256" height="256" viewBox="0 0 256 256"><defs><linearGradient id="bg" x1="36" x2="220" y1="24" y2="232" gradientUnits="userSpaceOnUse"><stop offset="0" stop-color="#6f78ff"/><stop offset=".48" stop-color="#9141ac"/><stop offset="1" stop-color="#241f31"/></linearGradient><linearGradient id="card" x1="52" x2="205" y1="60" y2="194" gradientUnits="userSpaceOnUse"><stop offset="0" stop-color="#f6f5f4"/><stop offset="1" stop-color="#deddda"/></linearGradient><linearGradient id="accent" x1="70" x2="174" y1="94" y2="176" gradientUnits="userSpaceOnUse"><stop offset="0" stop-color="#ffbe6f"/><stop offset="1" stop-color="#ed333b"/></linearGradient><filter id="shadow" width="140%" height="150%" x="-20%" y="-20%"><feDropShadow dx="0" dy="12" flood-color="#000" flood-opacity=".28" stdDeviation="12"/></filter></defs><rect width="212" height="212" x="22" y="22" fill="url(#bg)" filter="url(#shadow)" rx="54"/><path fill="#1a1625" d="M48 72c0-13 10-23 23-23h114c13 0 23 10 23 23v112c0 13-10 23-23 23H71c-13 0-23-10-23-23Z" opacity=".34"/><rect width="152" height="42" x="52" y="58" fill="url(#card)" rx="14"/><path fill="#241f31" d="M74 58h28L86 100H58Z" opacity=".24"/><path fill="#241f31" d="M121 58h28l-16 42h-28Z" opacity=".24"/><path fill="#241f31" d="M168 58h28l-16 42h-28Z" opacity=".24"/><rect width="152" height="96" x="52" y="108" fill="url(#card)" rx="18"/><rect width="44" height="42" x="72" y="130" fill="#241f31" opacity=".18" rx="10"/><circle cx="94" cy="151" r="13" fill="url(#accent)"/><rect width="14" height="54" x="132" y="128" fill="#241f31" opacity=".24" rx="7"/><rect width="14" height="64" x="154" y="118" fill="#241f31" opacity=".24" rx="7"/><rect width="14" height="42" x="176" y="140" fill="#241f31" opacity=".24" rx="7"/><circle cx="139" cy="142" r="13" fill="#f6f5f4"/><circle cx="161" cy="132" r="13" fill="#f6f5f4"/><circle cx="183" cy="154" r="13" fill="#f6f5f4"/><path stroke="#241f31" stroke-linecap="round" stroke-width="10" d="M78 188h100" opacity=".22"/><path stroke="#9141ac" stroke-linecap="round" stroke-width="10" d="M78 188h58"/></svg>