<?xml version="1.0" encoding="UTF-8"?>
<svg xmlns="http://www.w3.org/2000/svg" width="256" height="256" viewBox="0 0 256 256">
  <defs>
    <linearGradient id="bg" x1="36" y1="24" x2="220" y2="232" gradientUnits="userSpaceOnUse">
      <stop offset="0" stop-color="#6f78ff"/>
      <stop offset="0.48" stop-color="#9141ac"/>
      <stop offset="1" stop-color="#241f31"/>
    </linearGradient>
    <linearGradient id="card" x1="52" y1="60" x2="205" y2="194" gradientUnits="userSpaceOnUse">
      <stop offset="0" stop-color="#f6f5f4"/>
      <stop offset="1" stop-color="#deddda"/>
    </linearGradient>
    <linearGradient id="accent" x1="70" y1="94" x2="174" y2="176" gradientUnits="userSpaceOnUse">
      <stop offset="0" stop-color="#ffbe6f"/>
      <stop offset="1" stop-color="#ed333b"/>
    </linearGradient>
    <filter id="shadow" x="-20%" y="-20%" width="140%" height="150%">
      <feDropShadow dx="0" dy="12" stdDeviation="12" flood-color="#000000" flood-opacity="0.28"/>
    </filter>
  </defs>

  <rect x="22" y="22" width="212" height="212" rx="54" fill="url(#bg)" filter="url(#shadow)"/>
  <path d="M48 72c0-13 10-23 23-23h114c13 0 23 10 23 23v112c0 13-10 23-23 23H71c-13 0-23-10-23-23Z" fill="#1a1625" opacity="0.34"/>

  <rect x="52" y="58" width="152" height="42" rx="14" fill="url(#card)"/>
  <path d="M74 58h28L86 100H58Z" fill="#241f31" opacity="0.24"/>
  <path d="M121 58h28l-16 42h-28Z" fill="#241f31" opacity="0.24"/>
  <path d="M168 58h28l-16 42h-28Z" fill="#241f31" opacity="0.24"/>

  <rect x="52" y="108" width="152" height="96" rx="18" fill="url(#card)"/>
  <rect x="72" y="130" width="44" height="42" rx="10" fill="#241f31" opacity="0.18"/>
  <circle cx="94" cy="151" r="13" fill="url(#accent)"/>

  <rect x="132" y="128" width="14" height="54" rx="7" fill="#241f31" opacity="0.24"/>
  <rect x="154" y="118" width="14" height="64" rx="7" fill="#241f31" opacity="0.24"/>
  <rect x="176" y="140" width="14" height="42" rx="7" fill="#241f31" opacity="0.24"/>

  <circle cx="139" cy="142" r="13" fill="#f6f5f4"/>
  <circle cx="161" cy="132" r="13" fill="#f6f5f4"/>
  <circle cx="183" cy="154" r="13" fill="#f6f5f4"/>

  <path d="M78 188h100" stroke="#241f31" stroke-width="10" stroke-linecap="round" opacity="0.22"/>
  <path d="M78 188h58" stroke="#9141ac" stroke-width="10" stroke-linecap="round"/>
</svg>
