<?xml version="1.0" encoding="UTF-8"?>
<svg xmlns="http://www.w3.org/2000/svg" width="760" height="220" viewBox="0 0 760 220">
  <defs>
    <linearGradient id="bg" x1="34" y1="25" x2="185" y2="195" gradientUnits="userSpaceOnUse">
      <stop offset="0" stop-color="#6f78ff"/>
      <stop offset="0.48" stop-color="#9141ac"/>
      <stop offset="1" stop-color="#241f31"/>
    </linearGradient>
    <linearGradient id="card" x1="58" y1="63" x2="183" y2="174" gradientUnits="userSpaceOnUse">
      <stop offset="0" stop-color="#f6f5f4"/>
      <stop offset="1" stop-color="#deddda"/>
    </linearGradient>
    <linearGradient id="accent" x1="72" y1="103" x2="160" y2="168" gradientUnits="userSpaceOnUse">
      <stop offset="0" stop-color="#ffbe6f"/>
      <stop offset="1" stop-color="#ed333b"/>
    </linearGradient>
    <filter id="shadow" x="-20%" y="-20%" width="140%" height="150%">
      <feDropShadow dx="0" dy="10" stdDeviation="10" flood-color="#000000" flood-opacity="0.24"/>
    </filter>
  </defs>

  <rect x="24" y="24" width="172" height="172" rx="44" fill="url(#bg)" filter="url(#shadow)"/>
  <path d="M46 64c0-11 9-20 20-20h88c11 0 20 9 20 20v92c0 11-9 20-20 20H66c-11 0-20-9-20-20Z" fill="#1a1625" opacity="0.34"/>
  <rect x="54" y="55" width="112" height="32" rx="11" fill="url(#card)"/>
  <path d="M72 55h22L82 87H60Z" fill="#241f31" opacity="0.24"/>
  <path d="M108 55h22l-12 32H96Z" fill="#241f31" opacity="0.24"/>
  <path d="M144 55h22l-12 32h-22Z" fill="#241f31" opacity="0.24"/>
  <rect x="54" y="94" width="112" height="74" rx="15" fill="url(#card)"/>
  <rect x="70" y="111" width="34" height="34" rx="8" fill="#241f31" opacity="0.18"/>
  <circle cx="87" cy="128" r="10" fill="url(#accent)"/>
  <rect x="118" y="111" width="10" height="43" rx="5" fill="#241f31" opacity="0.24"/>
  <rect x="136" y="104" width="10" height="50" rx="5" fill="#241f31" opacity="0.24"/>
  <circle cx="123" cy="121" r="10" fill="#f6f5f4"/>
  <circle cx="141" cy="115" r="10" fill="#f6f5f4"/>
  <path d="M72 158h72" stroke="#241f31" stroke-width="8" stroke-linecap="round" opacity="0.22"/>
  <path d="M72 158h42" stroke="#9141ac" stroke-width="8" stroke-linecap="round"/>

  <text x="230" y="105" font-family="Cantarell, Inter, system-ui, sans-serif" font-size="58" font-weight="800" fill="#f6f5f4">SceneDeck</text>
  <text x="234" y="146" font-family="Cantarell, Inter, system-ui, sans-serif" font-size="24" font-weight="500" fill="#c0bfbc">OBS scene and audio control</text>
  <path d="M234 168h214" stroke="#9141ac" stroke-width="8" stroke-linecap="round"/>
  <path d="M468 168h72" stroke="#ffbe6f" stroke-width="8" stroke-linecap="round"/>
</svg>
