<svg xmlns="http://www.w3.org/2000/svg" width="760" height="220" viewBox="0 0 760 220"><defs><linearGradient id="bg" x1="34" x2="185" y1="25" y2="195" gradientUnits="userSpaceOnUse"><stop offset="0" stop-color="#6f78ff"/><stop offset=".48" stop-color="#9141ac"/><stop offset="1" stop-color="#241f31"/></linearGradient><linearGradient id="card" x1="58" x2="183" y1="63" y2="174" gradientUnits="userSpaceOnUse"><stop offset="0" stop-color="#f6f5f4"/><stop offset="1" stop-color="#deddda"/></linearGradient><linearGradient id="accent" x1="72" x2="160" y1="103" y2="168" gradientUnits="userSpaceOnUse"><stop offset="0" stop-color="#ffbe6f"/><stop offset="1" stop-color="#ed333b"/></linearGradient><filter id="shadow" width="140%" height="150%" x="-20%" y="-20%"><feDropShadow dx="0" dy="10" flood-color="#000" flood-opacity=".24" stdDeviation="10"/></filter></defs><rect width="172" height="172" x="24" y="24" fill="url(#bg)" filter="url(#shadow)" rx="44"/><path fill="#1a1625" d="M46 64c0-11 9-20 20-20h88c11 0 20 9 20 20v92c0 11-9 20-20 20H66c-11 0-20-9-20-20Z" opacity=".34"/><rect width="112" height="32" x="54" y="55" fill="url(#card)" rx="11"/><path fill="#241f31" d="M72 55h22L82 87H60Z" opacity=".24"/><path fill="#241f31" d="M108 55h22l-12 32H96Z" opacity=".24"/><path fill="#241f31" d="M144 55h22l-12 32h-22Z" opacity=".24"/><rect width="112" height="74" x="54" y="94" fill="url(#card)" rx="15"/><rect width="34" height="34" x="70" y="111" fill="#241f31" opacity=".18" rx="8"/><circle cx="87" cy="128" r="10" fill="url(#accent)"/><rect width="10" height="43" x="118" y="111" fill="#241f31" opacity=".24" rx="5"/><rect width="10" height="50" x="136" y="104" fill="#241f31" opacity=".24" rx="5"/><circle cx="123" cy="121" r="10" fill="#f6f5f4"/><circle cx="141" cy="115" r="10" fill="#f6f5f4"/><path stroke="#241f31" stroke-linecap="round" stroke-width="8" d="M72 158h72" opacity=".22"/><path stroke="#9141ac" stroke-linecap="round" stroke-width="8" d="M72 158h42"/><text x="230" y="105" fill="#f6f5f4" font-family="Cantarell, Inter, system-ui, sans-serif" font-size="58" font-weight="800">SceneDeck</text><text x="234" y="146" fill="#c0bfbc" font-family="Cantarell, Inter, system-ui, sans-serif" font-size="24" font-weight="500">OBS scene and audio control</text><path stroke="#9141ac" stroke-linecap="round" stroke-width="8" d="M234 168h214"/><path stroke="#ffbe6f" stroke-linecap="round" stroke-width="8" d="M468 168h72"/></svg>